<svg width="88" height="88" viewBox="0 0 88 88" fill="none" xmlns="http://www.w3.org/2000/svg">
<path fill-rule="evenodd" clip-rule="evenodd" d="M44.5077 51.3525C47.2134 54.1348 50.5614 54.8876 54.6622 54.8876C60.3035 54.8876 65.0049 51.916 65.0049 46.4618C65.0049 43.9803 64.4382 41.9857 63.0092 40.5951C61.8812 39.4671 60.1503 38.7143 57.7454 38.3751L54.5112 37.9222C53.5714 37.8128 53.0057 37.4703 52.6654 37.1333C52.2562 36.723 52.1424 36.2318 52.1424 35.8926C52.1424 34.7273 53.0812 33.4089 55.3767 33.4089C55.4414 33.4089 55.5094 33.4086 55.5805 33.4082C56.7861 33.4021 58.8549 33.3916 60.4534 34.9921L64.5913 30.852C62.297 28.5565 59.4019 27.6561 55.5648 27.6561C49.4695 27.6561 45.7856 31.2295 45.7856 36.118C45.7856 38.4123 46.3863 40.2176 47.627 41.4967C48.8316 42.7374 50.6391 43.5284 53.0057 43.8676L56.2421 44.3195C57.1065 44.4322 57.671 44.6948 58.0102 45.0318C58.3833 45.4475 58.5365 45.9738 58.5365 46.6139C58.5365 48.1533 57.2936 49.0198 54.7005 49.0198C52.5538 49.0198 50.1107 48.5318 48.7189 47.1379L44.5077 51.3525ZM40.1826 51.8777C42.2144 49.8087 42.8939 47.29 42.8939 42.9639V39.2395H32.3969V44.7331H36.3477V45.1083C36.3477 46.1248 36.083 47.2145 35.3324 47.9673C34.7306 48.6084 33.7908 49.0198 32.3969 49.0198C31.1922 49.0198 30.2929 48.5319 29.8027 47.8907C29.201 47.1018 28.8257 46.1598 28.8257 41.2713C28.8257 36.3806 29.201 35.4812 29.8027 34.688C30.2929 34.0501 31.1922 33.5216 32.3969 33.5216C34.6562 33.5216 35.7055 34.4998 36.234 36.5337H42.8523C42.2144 32.1299 39.2811 27.6561 32.3969 27.6561C29.1648 27.6561 26.9055 28.7075 24.9481 30.6627C22.2343 33.3807 22.238 36.9681 22.242 40.8241C22.2422 40.9728 22.2424 41.1218 22.2424 41.2713C22.2424 41.4207 22.2422 41.5699 22.242 41.7186C22.238 45.5755 22.2343 49.1617 24.9481 51.8777C26.9055 53.834 29.2775 54.8876 32.3969 54.8876C35.3324 54.8876 37.8904 54.2464 40.1826 51.8777ZM78.8411 54.6633C81.6279 54.6633 84.222 53.8722 86.0656 52.0287C86.419 51.6731 86.7265 51.3131 87 50.9477C83.8621 61.565 72.7009 68.807 62.6318 70.028C57.9909 70.5873 53.4265 71.0898 49.1047 71.5655C42.6976 72.2709 36.8236 72.9175 32.0238 73.6036C23.9908 74.7524 18.844 77.3488 16.4293 84.3183C7.30981 76.8334 0 62.3834 0 45.0011C0 41.6827 0.368721 38.4572 1.05145 35.3444L7.42579 54.6644H12.3143L21.1909 27.8814H14.3461L9.90725 42.8534L5.39401 27.8814H3.37974C10.1162 11.5211 26.2107 0 45.0011 0C64.6187 0 79.9604 12.5572 85.5623 30.0686C83.7614 28.551 81.3839 27.8814 78.8411 27.8814H68.9142V54.6633H78.8411ZM75.8096 33.2942H78.3895C80.0438 33.2942 80.9475 34.083 81.5504 34.9889C82.0756 35.7395 82.2649 36.6805 82.2649 41.1948C82.2649 45.7452 82.0756 46.382 81.5504 47.1348C80.9475 48.0363 80.0438 48.4805 78.3895 48.4805H75.8096V33.2942Z" fill="#037e5f"/>
</svg>
