<svg fill="none" height="897" viewBox="0 0 3158 897" width="3158" xmlns="http://www.w3.org/2000/svg" xmlns:xlink="http://www.w3.org/1999/xlink"><linearGradient id="a" gradientUnits="userSpaceOnUse" x1="604.5" x2="604.5" y1=".000021" y2="897"><stop offset="0" stop-color="#6363ff"/><stop offset="1" stop-color="#4730a7"/></linearGradient><g fill="#fff"><path d="m1160.48 318.98c-25.15 24.827-55.86 37.24-92.12 37.24s-66.97-12.413-92.12-37.24c-24.827-25.153-37.24-55.86-37.24-92.12s12.413-66.803 37.24-91.63c25.15-25.153 55.86-37.73 92.12-37.73s66.97 12.577 92.12 37.73c25.15 24.827 37.73 55.37 37.73 91.63s-12.58 66.967-37.73 92.12zm-139.65-43.61c12.74 12.74 28.58 19.11 47.53 19.11s34.79-6.37 47.53-19.11 19.11-28.91 19.11-48.51-6.37-35.77-19.11-48.51-28.58-19.11-47.53-19.11-34.79 6.37-47.53 19.11c-12.41 12.74-18.62 28.91-18.62 48.51s6.21 35.77 18.62 48.51z"/><path d="m1373 98.14c26.78 0 48.83 8.983 66.15 26.95 17.64 17.967 26.46 42.793 26.46 74.48v150.43h-63.21v-142.59c0-16.333-4.41-28.747-13.23-37.24-8.82-8.82-20.58-13.23-35.28-13.23-16.34 0-29.4 5.063-39.2 15.19s-14.7 25.317-14.7 45.57v132.3h-63.21v-245h63.21v27.44c15.35-22.867 39.69-34.3 73.01-34.3z"/><path d="m1572.99 174.58c0 6.533 4.25 11.923 12.74 16.17 8.82 3.92 19.44 7.513 31.85 10.78 12.41 2.94 24.83 6.86 37.24 11.76 12.41 4.573 22.87 12.413 31.36 23.52 8.82 11.107 13.23 24.99 13.23 41.65 0 25.153-9.47 44.59-28.42 58.31-18.62 13.393-41.98 20.09-70.07 20.09-50.31 0-84.61-19.437-102.9-58.31l54.88-30.87c7.19 21.233 23.19 31.85 48.02 31.85 22.54 0 33.81-7.023 33.81-21.07 0-6.533-4.41-11.76-13.23-15.68-8.49-4.247-18.95-8.003-31.36-11.27s-24.83-7.35-37.24-12.25-23.03-12.577-31.85-23.03c-8.49-10.78-12.74-24.173-12.74-40.18 0-24.173 8.82-43.12 26.46-56.84 17.97-14.047 40.18-21.07 66.64-21.07 19.93 0 38.06 4.573 54.39 13.72 16.33 8.82 29.24 21.56 38.71 38.22l-53.9 29.4c-7.84-16.66-20.91-24.99-39.2-24.99-8.17 0-15.03 1.797-20.58 5.39-5.23 3.593-7.84 8.493-7.84 14.7z"/><path d="m1868.12 165.76h-55.37v101.92c0 8.493 2.13 14.7 6.37 18.62 4.25 3.92 10.46 6.207 18.62 6.86 8.17.327 18.3.163 30.38-.49v57.33c-43.44 4.9-74.15.817-92.12-12.25-17.64-13.067-26.46-36.423-26.46-70.07v-101.92h-42.63v-60.76h42.63v-49.49l52.21-4.11 11 53.6h55.37z"/><path d="m1953.54 253.47c8.5 30.707 31.53 46.06 69.09 46.06 24.18 0 42.47-8.167 54.88-24.5l50.96 29.4c-24.17 34.953-59.78 52.43-106.82 52.43-40.5 0-73.01-12.25-97.51-36.75s-36.75-55.37-36.75-92.61c0-36.913 12.09-67.62 36.26-92.12 24.18-24.827 55.21-37.24 93.1-37.24 35.94 0 65.5 12.413 88.69 37.24 23.52 24.827 35.28 55.533 35.28 92.12 0 8.167-.81 16.823-2.45 25.97zm-.98-49h124.95c-3.59-16.66-11.1-29.073-22.54-37.24-11.1-8.167-23.84-12.25-38.22-12.25-16.98 0-31.03 4.41-42.14 13.23-11.1 8.493-18.45 20.58-22.05 36.26z"/><path d="m2243.16 147.14c5.88-15.68 15.52-27.44 28.91-35.28 13.72-7.84 28.91-11.76 45.57-11.76v70.56c-19.27-2.287-36.59 1.633-51.94 11.76-15.03 10.127-22.54 26.95-22.54 50.47v117.11h-63.21v-245h63.21z"/><path d="m2515.33 22h63.21l11 328h-63.21v-28.91c-18.62 23.847-45.08 35.77-79.38 35.77-33 0-61.25-12.413-84.77-37.24-23.2-25.153-34.79-55.86-34.79-92.12s11.59-66.803 34.79-91.63c23.52-25.153 51.77-37.73 84.77-37.73 34.3 0 60.76 11.923 79.38 35.77zm-105.62 255.48c13.06 12.74 29.4 19.11 49 19.11s35.77-6.37 48.51-19.11c12.74-13.067 19.11-29.727 19.11-49.98s-6.37-36.75-19.11-49.49c-12.74-13.067-28.91-19.6-48.51-19.6s-35.94 6.533-49 19.6c-12.74 12.74-19.11 29.237-19.11 49.49s6.37 36.913 19.11 49.98z"/><path d="m2851.19 319.62c-25.16 24.827-55.86 37.24-92.12 37.24s-66.97-12.413-92.12-37.24c-24.83-25.153-37.24-55.86-37.24-92.12s12.41-66.803 37.24-91.63c25.15-25.153 55.86-37.73 92.12-37.73s66.96 12.577 92.12 37.73c25.15 24.827 37.73 55.37 37.73 91.63s-12.58 66.967-37.73 92.12zm-139.65-43.61c12.74 12.74 28.58 19.11 47.53 19.11 18.94 0 34.79-6.37 47.53-19.11s19.11-28.91 19.11-48.51-6.37-35.77-19.11-48.51-28.59-19.11-47.53-19.11c-18.95 0-34.79 6.37-47.53 19.11-12.42 12.74-18.62 28.91-18.62 48.51s6.2 35.77 18.62 48.51z"/><path d="m3064.7 98.14c26.79 0 48.84 8.983 66.15 26.95 17.64 17.967 26.46 42.793 26.46 74.48v150.43h-63.21v-142.59c0-16.333-4.41-28.747-13.23-37.24-8.82-8.82-20.58-13.23-35.28-13.23-16.33 0-29.4 5.063-39.2 15.19s-14.7 25.317-14.7 45.57v132.3h-63.21v-245h63.21v27.44c15.36-22.867 39.69-34.3 73.01-34.3z"/><path d="m2322.23 535.8c3.6-9.6 9.5-16.8 17.7-21.6 8.4-4.8 17.7-7.2 27.9-7.2v43.2c-11.8-1.4-22.4 1-31.8 7.2-9.2 6.2-13.8 16.5-13.8 30.9v71.7h-38.7v-150h38.7z"/><path d="m2417.6 600.9c5.2 18.8 19.3 28.2 42.3 28.2 14.8 0 26-5 33.6-15l31.2 18c-14.8 21.4-36.6 32.1-65.4 32.1-24.8 0-44.7-7.5-59.7-22.5s-22.5-33.9-22.5-56.7c0-22.6 7.4-41.4 22.2-56.4 14.8-15.2 33.8-22.8 57-22.8 22 0 40.1 7.6 54.3 22.8 14.4 15.2 21.6 34 21.6 56.4 0 5-.5 10.3-1.5 15.9zm-.6-30h76.5c-2.2-10.2-6.8-17.8-13.8-22.8-6.8-5-14.6-7.5-23.4-7.5-10.4 0-19 2.7-25.8 8.1-6.8 5.2-11.3 12.6-13.5 22.2z"/><path d="m2646.51 505.8c20.2 0 37.4 7.7 51.6 23.1 14.4 15.2 21.6 33.9 21.6 56.1s-7.2 41-21.6 56.4c-14.2 15.2-31.4 22.8-51.6 22.8-21 0-37.2-7.3-48.6-21.9v77.7h-38.7v-210h38.7v17.7c11.4-14.6 27.6-21.9 48.6-21.9zm-36.9 109.8c7.8 7.8 17.7 11.7 29.7 11.7s21.9-3.9 29.7-11.7c8-8 12-18.2 12-30.6s-4-22.5-12-30.3c-7.8-8-17.7-12-29.7-12s-21.9 4-29.7 12c-7.8 7.8-11.7 17.9-11.7 30.3s3.9 22.6 11.7 30.6z"/><path d="m2747.01 660v-219h38.7v219z"/><path d="m2935.13 510h38.7v150h-38.7v-17.7c-11.6 14.6-27.9 21.9-48.9 21.9-20 0-37.2-7.6-51.6-22.8-14.2-15.4-21.3-34.2-21.3-56.4s7.1-40.9 21.3-56.1c14.4-15.4 31.6-23.1 51.6-23.1 21 0 37.3 7.3 48.9 21.9zm-71.4 105.6c7.8 7.8 17.7 11.7 29.7 11.7s21.9-3.9 29.7-11.7c8-8 12-18.2 12-30.6s-4-22.5-12-30.3c-7.8-8-17.7-12-29.7-12s-21.9 4-29.7 12c-7.8 7.8-11.7 17.9-11.7 30.3s3.9 22.6 11.7 30.6z"/><path d="m3106.72 510h41.4l-54.6 150c-7.8 21.6-18.2 37.2-31.2 46.8-12.8 9.8-28.8 14.2-48 13.2v-36c10.4.2 18.6-2 24.6-6.6 6.2-4.6 11.1-12 14.7-22.2l-61.5-145.2h42.3l39 100.8z"/></g><path d="m843.187 349.219c-8 41.093-71.531 86.031-144.5 94.75-38.031 4.562-75.812 12.209-115.437 6.906-47.251-6.324-104.751 23.646-271.531-259.625 0-126.3751 82.75-163.4063 82.75-163.4063 41.75-19.1875 113.344-27.24995 187.812-27.8437h1.813c74.469.59375 146.124 8.6562 187.843 27.8437 0 0 82.78 37.0312 82.78 163.4063 0 0 1.032 93.219-11.53 157.969z" fill="url(#a)"/><path d="m543.715 447.366c-16-2-23.715 4.759-30.396 13.447-2.384 2.335-3.614 4.994-5 8-.905 1.678-.905 1.678-1.829 3.39-3.019 6.032-4.982 12.474-7.109 18.86-4.192 12.531-8.697 24.645-14.938 36.312-.436.82-.872 1.64-1.322 2.485-3.322 6.182-6.826 12.166-10.803 17.953-.54.793-.54.793-1.091 1.602-13.535 19.767-29.562 37.197-48.909 51.398-.62.464-1.24.928-1.879 1.407-15.643 11.685-32.705 21.042-49.727 30.538-6.248 3.5-12.333 7.239-18.394 11.055-1.026.643-2.052 1.286-3.109 1.949-5.151 3.211-5.151 3.211-10.074 6.75-1.817 1.301-1.817 1.301-3.817 1.301v2c-1.369 1.183-2.799 2.296-4.25 3.379-6.443 5.026-12.046 10.73-17.75 16.558-1.55 1.579-3.103 3.156-4.658 4.73-1.39 1.408-2.777 2.821-4.162 4.235-2.663 2.563-3.483 3.054-7.18 3.285-3-.187-3-.187-5-2.187-.464-5.748.309-10.002 2.75-15.25.305-.674.611-1.348.925-2.043 8.553-18.249 19.99-35.478 33.86-50.09 1.972-2.093 3.831-4.209 5.653-6.43 2.623-3.11 5.58-5.674 8.676-8.305 2.314-2.039 4.472-4.185 6.636-6.382 2.708-2.745 5.442-5.373 8.375-7.875 21.97-18.956 37.764-43.112 49.125-69.625.478-1.098.478-1.098.965-2.218 12.196-28.486 16.536-58.008 16.035-88.782-2.589 2.589-3.145 4.967-4.312 8.437-2.21 6.383-4.748 12.483-7.688 18.563-.276.584-.553 1.169-.839 1.772-7.567 15.949-16.402 30.049-28.161 43.228-2.83 3.353-2.83 3.353-5.66 6.707-4.201 4.054-8.625 8.401-13.34 12.293-.55.461-1.099.921-1.666 1.396-12.975 10.865-26.633 20.556-40.74 29.886-5.247 3.47-10.43 7.03-15.604 10.608-3.919 2.704-7.863 5.361-11.838 7.981-7.258 4.785-14.288 9.786-21.152 15.129-1.334 1.024-1.334 1.024-2.695 2.07-16.035 12.669-35.547 28.271-42.123 40.242-10.677 19.433-19.557 36.409-25.182 60.875-8.772 38.139-8.609 84.627-32 116.813-.712 1.003-.712 1.003-1.438 2.026-30.187 42.429-78.6526 79.541-130.5657 89.564-5.6171.768-9.2392.629-14.0587-2.715-1.9375-2.875-1.9375-2.875-2.125-6.25 2.919-8.911 11.0989-14.004 18.1876-19.625 1.836-1.497 3.6693-2.997 5.4999-4.5 2.7296-2.238 5.4626-4.47 8.2149-6.68 7.0256-5.665 13.7438-11.607 20.2852-17.82.8984-.848.8989-.848 1.8154-1.712 36.3744-34.525 43.3244-77.133 46.6844-125.413 1.125-16.073 2.371-32.094 4.481-48.071.157-1.2.315-2.401.477-3.639 5.833-42.208 24.372-73.343 52.792-104.103.554-.602 1.108-1.205 1.679-1.826 3.485-3.727 7.15-7.119 11.019-10.444 3.517-3.07 6.863-6.32 10.24-9.542 6.556-6.213 13.261-12.157 20.214-17.917 2.848-2.375 5.66-4.792 8.473-7.208.576-.495 1.153-.989 1.746-1.499 14.205-12.197 14.205-12.197 28.184-24.65 2.061-1.856 4.153-3.669 6.258-5.476 3.756-3.265 7.228-6.772 10.719-10.317 2.007-1.975 4.066-3.806 6.218-5.621 4.786-4.126 8.862-8.798 13-13.562.962-1.088 1.925-2.175 2.887-3.262 11.933-13.576 21.297-27.971 30.113-43.738-4.131 3.193-7.899 6.667-11.687 10.25-38.118 35.602-87.38 51.242-137.063 63.458-13.864 3.409-27.616 7.039-41.25 11.292-1.206.37-1.206.37-2.437.747-21.566 6.655-40.353 15.276-56.5628 31.253-.6703.657-1.3406 1.315-2.0312 1.992-32.4792 34.398-37.0266 100.748-36.1183 145.231.4991 12.614 2.2489 25.167 4.2276 37.624.6849 4.399 1.24 8.693 1.2969 13.153.0283 1.031.0567 2.062.0859 3.125-.5799 3.616-1.9499 5.261-4.461 7.875-2.9746 1.487-4.6727 1.431-7.9999 1-2.953-1.677-5.4472-3.772-8.0001-6-.5775-.484-1.155-.967-1.75-1.465-13.5104-12.291-20.71275-31.46-25.12487-48.723-.19111-.746-.38221-1.492-.57911-2.26-3.577795-15.178-3.9175614-30.355-3.85838927-45.865.00323273-1.526.00353791-1.526.00683597-3.083.0545303-16.07.7521643-31.712 3.3056633-47.604.22228-1.413.44493-2.825.66699-4.238 7.84518-49.519 19.25198-102.691 55.33298-139.762.6187-.704 1.2375-1.408 1.875-2.133 4.1881-4.618 9.0102-8.019 14.1875-11.43.6537-.435 1.3079-.87 1.9815-1.318 11.6119-7.407 24.3618-12.26 37.3938-16.494.698-.23 1.396-.46 2.115-.698 14.582-4.805 29.329-8.967 44.135-13.02 14.667-4.018 29.004-8.757 43.312-13.907.877-.313 1.754-.626 2.657-.949 42.736-15.354 42.736-15.354 79.035-41.809 3.542-3.441 6.391-6.473 9.621-10.305 10.201-12.879 12.413-28.579 13.219-44.5.042-.815.084-1.63.128-2.47.541-11.224.666-22.463.817-33.698 5.907-438.582 334.204 202.918 233.92 211.284z" fill="url(#a)"/><path d="m426.281 162.094c0-18.407 14.907-33.313 33.281-33.313 18.376 0 33.282 14.906 33.282 33.313 0 18.375-14.906 33.281-33.282 33.281-18.374 0-33.281-14.906-33.281-33.281z" fill="#fff"/><path d="m903.5 201.312v153.032h-60.594v-148.532c0-31.312-13.187-47.187-39.531-47.187-29.125 0-43.719 18.844-43.719 56.125v81.281h-60.25v-81.281c0-37.281-14.594-56.125-43.718-56.125-26.313 0-39.5 15.875-39.5 47.187v148.532h-60.594v-153.032c0-31.25 7.968-56.093 23.937-74.5 16.5-18.375 38.094-27.812 64.907-27.812 31 0 54.5 11.937 70 35.781l15.093 25.313 15.094-25.313c15.531-23.844 39.031-35.781 70.031-35.781 26.813 0 48.406 9.437 64.875 27.812 16 18.407 23.969 43.25 23.969 74.5z" fill="#fff"/></svg>