<svg fill="none" height="897" viewBox="0 0 3160 897" width="3160" xmlns="http://www.w3.org/2000/svg"><g fill="#fff"><path d="m1159.65 319.245c-25.15 24.827-55.86 37.24-92.12 37.24s-66.97-12.413-92.12-37.24c-24.827-25.153-37.24-55.86-37.24-92.12s12.413-66.803 37.24-91.63c25.15-25.153 55.86-37.73 92.12-37.73s66.97 12.577 92.12 37.73c25.15 24.827 37.73 55.37 37.73 91.63s-12.58 66.967-37.73 92.12zm-139.65-43.61c12.74 12.74 28.58 19.11 47.53 19.11s34.79-6.37 47.53-19.11 19.11-28.91 19.11-48.51-6.37-35.77-19.11-48.51-28.58-19.11-47.53-19.11-34.79 6.37-47.53 19.11c-12.41 12.74-18.62 28.91-18.62 48.51s6.21 35.77 18.62 48.51z"/><path d="m1373.17 97.765c26.78 0 48.83 8.983 66.15 26.95 17.64 17.967 26.46 42.793 26.46 74.48v150.43h-63.21v-142.59c0-16.333-4.41-28.747-13.23-37.24-8.82-8.82-20.58-13.23-35.28-13.23-16.34 0-29.4 5.063-39.2 15.19s-14.7 25.317-14.7 45.57v132.3h-63.21v-245h63.21v27.44c15.35-22.867 39.69-34.3 73.01-34.3z"/><path d="m1573.16 174.205c0 6.533 4.25 11.923 12.74 16.17 8.82 3.92 19.44 7.513 31.85 10.78 12.41 2.94 24.83 6.86 37.24 11.76 12.41 4.573 22.87 12.413 31.36 23.52 8.82 11.107 13.23 24.99 13.23 41.65 0 25.153-9.47 44.59-28.42 58.31-18.62 13.393-41.98 20.09-70.07 20.09-50.31 0-84.61-19.437-102.9-58.31l54.88-30.87c7.19 21.233 23.19 31.85 48.02 31.85 22.54 0 33.81-7.023 33.81-21.07 0-6.533-4.41-11.76-13.23-15.68-8.49-4.247-18.95-8.003-31.36-11.27s-24.83-7.35-37.24-12.25-23.03-12.577-31.85-23.03c-8.49-10.78-12.74-24.173-12.74-40.18 0-24.173 8.82-43.12 26.46-56.84 17.97-14.047 40.18-21.07 66.64-21.07 19.93 0 38.06 4.573 54.39 13.72 16.33 8.82 29.24 21.56 38.71 38.22l-53.9 29.4c-7.84-16.66-20.91-24.99-39.2-24.99-8.17 0-15.03 1.797-20.58 5.39-5.23 3.593-7.84 8.493-7.84 14.7z"/><path d="m1868.29 165.385h-55.37v101.92c0 8.493 2.13 14.7 6.37 18.62 4.25 3.92 10.46 6.207 18.62 6.86 8.17.327 18.3.163 30.38-.49v57.33c-43.44 4.9-74.15.817-92.12-12.25-17.64-13.067-26.46-36.423-26.46-70.07v-101.92h-42.63v-60.76h42.63v-49.49l63.21-19.11v68.6h55.37z"/><path d="m1953.71 253.095c8.5 30.707 31.53 46.06 69.09 46.06 24.18 0 42.47-8.167 54.88-24.5l50.96 29.4c-24.17 34.953-59.78 52.43-106.82 52.43-40.5 0-73.01-12.25-97.51-36.75s-36.75-55.37-36.75-92.61c0-36.913 12.09-67.62 36.26-92.12 24.18-24.827 55.21-37.24 93.1-37.24 35.94 0 65.5 12.413 88.69 37.24 23.52 24.827 35.28 55.533 35.28 92.12 0 8.167-.81 16.823-2.45 25.97zm-.98-49h124.95c-3.59-16.66-11.1-29.073-22.54-37.24-11.1-8.167-23.84-12.25-38.22-12.25-16.98 0-31.03 4.41-42.14 13.23-11.1 8.493-18.45 20.58-22.05 36.26z"/><path d="m2243.33 146.765c5.88-15.68 15.52-27.44 28.91-35.28 13.72-7.84 28.91-11.76 45.57-11.76v70.56c-19.27-2.287-36.59 1.633-51.94 11.76-15.03 10.127-22.54 26.95-22.54 50.47v117.11h-63.21v-245h63.21z"/><path d="m2526.5 6.62498h63.21v343.00002h-63.21v-28.91c-18.62 23.847-45.08 35.77-79.38 35.77-33 0-61.25-12.413-84.77-37.24-23.2-25.153-34.79-55.86-34.79-92.12s11.59-66.803 34.79-91.63c23.52-25.153 51.77-37.73 84.77-37.73 34.3 0 60.76 11.923 79.38 35.77zm-116.62 270.48002c13.06 12.74 29.4 19.11 49 19.11s35.77-6.37 48.51-19.11c12.74-13.067 19.11-29.727 19.11-49.98s-6.37-36.75-19.11-49.49c-12.74-13.067-28.91-19.6-48.51-19.6s-35.94 6.533-49 19.6c-12.74 12.74-19.11 29.237-19.11 49.49s6.37 36.913 19.11 49.98z"/><path d="m2851.36 319.245c-25.16 24.827-55.86 37.24-92.12 37.24s-66.97-12.413-92.12-37.24c-24.83-25.153-37.24-55.86-37.24-92.12s12.41-66.803 37.24-91.63c25.15-25.153 55.86-37.73 92.12-37.73s66.96 12.577 92.12 37.73c25.15 24.827 37.73 55.37 37.73 91.63s-12.58 66.967-37.73 92.12zm-139.65-43.61c12.74 12.74 28.58 19.11 47.53 19.11 18.94 0 34.79-6.37 47.53-19.11s19.11-28.91 19.11-48.51-6.37-35.77-19.11-48.51-28.59-19.11-47.53-19.11c-18.95 0-34.79 6.37-47.53 19.11-12.42 12.74-18.62 28.91-18.62 48.51s6.2 35.77 18.62 48.51z"/><path d="m3064.87 97.765c26.79 0 48.84 8.983 66.15 26.95 17.64 17.967 26.46 42.793 26.46 74.48v150.43h-63.21v-142.59c0-16.333-4.41-28.747-13.23-37.24-8.82-8.82-20.58-13.23-35.28-13.23-16.33 0-29.4 5.063-39.2 15.19s-14.7 25.317-14.7 45.57v132.3h-63.21v-245h63.21v27.44c15.36-22.867 39.69-34.3 73.01-34.3z"/><path d="m2333.4 520.425c3.6-9.6 9.5-16.8 17.7-21.6 8.4-4.8 17.7-7.2 27.9-7.2v43.2c-11.8-1.4-22.4 1-31.8 7.2-9.2 6.2-13.8 16.5-13.8 30.9v71.7h-38.7v-150h38.7z"/><path d="m2428.77 585.525c5.2 18.8 19.3 28.2 42.3 28.2 14.8 0 26-5 33.6-15l31.2 18c-14.8 21.4-36.6 32.1-65.4 32.1-24.8 0-44.7-7.5-59.7-22.5s-22.5-33.9-22.5-56.7c0-22.6 7.4-41.4 22.2-56.4 14.8-15.2 33.8-22.8 57-22.8 22 0 40.1 7.6 54.3 22.8 14.4 15.2 21.6 34 21.6 56.4 0 5-.5 10.3-1.5 15.9zm-.6-30h76.5c-2.2-10.2-6.8-17.8-13.8-22.8-6.8-5-14.6-7.5-23.4-7.5-10.4 0-19 2.7-25.8 8.1-6.8 5.2-11.3 12.6-13.5 22.2z"/><path d="m2657.68 490.425c20.2 0 37.4 7.7 51.6 23.1 14.4 15.2 21.6 33.9 21.6 56.1s-7.2 41-21.6 56.4c-14.2 15.2-31.4 22.8-51.6 22.8-21 0-37.2-7.3-48.6-21.9v77.7h-38.7v-210h38.7v17.7c11.4-14.6 27.6-21.9 48.6-21.9zm-36.9 109.8c7.8 7.8 17.7 11.7 29.7 11.7s21.9-3.9 29.7-11.7c8-8 12-18.2 12-30.6s-4-22.5-12-30.3c-7.8-8-17.7-12-29.7-12s-21.9 4-29.7 12c-7.8 7.8-11.7 17.9-11.7 30.3s3.9 22.6 11.7 30.6z"/><path d="m2758.18 644.625v-219h38.7v219z"/><path d="m2946.3 494.625h38.7v150h-38.7v-17.7c-11.6 14.6-27.9 21.9-48.9 21.9-20 0-37.2-7.6-51.6-22.8-14.2-15.4-21.3-34.2-21.3-56.4s7.1-40.9 21.3-56.1c14.4-15.4 31.6-23.1 51.6-23.1 21 0 37.3 7.3 48.9 21.9zm-71.4 105.6c7.8 7.8 17.7 11.7 29.7 11.7s21.9-3.9 29.7-11.7c8-8 12-18.2 12-30.6s-4-22.5-12-30.3c-7.8-8-17.7-12-29.7-12s-21.9 4-29.7 12c-7.8 7.8-11.7 17.9-11.7 30.3s3.9 22.6 11.7 30.6z"/><path d="m3117.89 494.625h41.4l-54.6 150c-7.8 21.6-18.2 37.2-31.2 46.8-12.8 9.8-28.8 14.2-48 13.2v-36c10.4.2 18.6-2 24.6-6.6 6.2-4.6 11.1-12 14.7-22.2l-61.5-145.2h42.3l39 100.8z"/></g><path d="m843.188 349.219c-8 41.093-71.532 86.031-144.5 94.75-38.032 4.562-75.5 8.718-115.438 6.906-65.344-3-116.906-15.625-116.906-15.625 0 6.375.406 12.438 1.187 18.094-31.031 0-37.031 19.5 15.469 21.281 9 4-9 22.5-9 22.5v13.5s14.5 8-29 31c-36.438 2-8 30.5-22 36.5-5.5-36.5 74-286.656-110.938-286.656-.937-36.688-.343-71.282-.343-100.219 0-126.375 82.75-163.4063 82.75-163.4063 41.75-19.18745 113.343-27.24995 187.812-27.8437h1.813c74.468.59375 146.125 8.65625 187.844 27.8437 0 0 82.781 37.0313 82.781 163.4063 0 0 1.031 93.219-11.531 157.969z" fill="#0085ff"/><path d="m554.568 25.6256c.874.0009 1.747.0018 2.647.0028 34.369.0793 68.788 3.4253 102.103 12.1847 1.014.2657 2.028.5314 3.073.8052 13.187 3.4965 26.178 7.3314 38.927 12.1948 1.117.4184 1.117.4184 2.256.8452 10.513 3.9604 20.731 8.4398 30.869 13.2798 1.031.4906 2.061.9813 3.123 1.4868 6.475 3.1375 12.647 6.5855 18.752 10.3882.781.4792 1.562.9584 2.367 1.4521 9.895 6.0884 19.533 12.3075 28.633 19.5479.931.7386 1.862 1.4772 2.821 2.2379 6.255 5.045 12.31 10.274 18.179 15.762.482.442.963.885 1.46 1.34 26.113 24.145 44.916 57.39 47.45 93.305.045 1.166.045 1.166.09 2.355.04.953.08 1.905.121 2.887.589 28.158-7.354 55.707-27.058 76.426-4.008 3.827-8.297 6.875-13.063 9.687-.736.442-1.472.884-2.23 1.34-12.596 6.942-27.412 9.048-41.61 8.39-8.221-.325-14.85-.587-21.347 5.133-2.93 3.454-5.024 6.987-6.813 11.137-.412.887-.825 1.774-1.25 2.688-1.713 5.283-1.943 10.609-1.937 16.125-.001.704-.002 1.408-.002 2.133.054 5.323.824 9.935 2.189 15.054v4c-.732.066-1.464.132-2.219.199-12.324 1.834-22.297 8.08-32.968 14.191-2.429 1.39-4.867 2.76-7.317 4.114-6.728 3.727-13.373 7.586-19.996 11.496-2.142 1.261-4.285 2.522-6.428 3.781-1.342.79-2.683 1.581-4.022 2.375-10.819 6.39-22.025 11.664-33.519 16.727-1.683.743-3.363 1.493-5.04 2.25-.786.354-1.572.709-2.381 1.074-1.035.47-1.035.47-2.091.949-2.083.871-4.173 1.562-6.331 2.219-15.441 5.032-65.642 10.669-78.506 20.437-16-2-23.5 4.5-30.182 13.188-2.383 2.336-3.613 4.995-5 8-.905 1.678-.905 1.678-1.828 3.391-3.019 6.031-4.983 12.474-7.109 18.859-4.192 12.531-8.697 24.646-14.938 36.313-.436.82-.872 1.64-1.322 2.485-3.322 6.182-6.826 12.165-10.803 17.952-.54.793-.54.793-1.092 1.602-13.534 19.767-29.561 37.198-48.908 51.398-.62.464-1.24.929-1.879 1.407-15.643 11.685-32.705 21.042-49.727 30.539-6.248 3.499-12.333 7.239-18.394 11.054-1.026.643-2.052 1.287-3.109 1.949-5.151 3.211-5.151 3.211-10.074 6.75-1.817 1.301-1.817 1.301-3.817 1.301v2c-1.369 1.183-2.799 2.297-4.25 3.379-6.443 5.026-12.046 10.73-17.75 16.559-1.551 1.578-3.103 3.155-4.658 4.729-1.391 1.409-2.777 2.822-4.162 4.235-2.663 2.563-3.483 3.054-7.18 3.286-3-.188-3-.188-5-2.188-.464-5.748.309-10.002 2.75-15.25.305-.674.61-1.348.925-2.042 8.553-18.249 19.99-35.479 33.86-50.091 1.972-2.093 3.831-4.208 5.653-6.429 2.623-3.11 5.58-5.675 8.676-8.305 2.314-2.039 4.472-4.185 6.636-6.383 2.708-2.745 5.442-5.373 8.375-7.875 21.97-18.956 37.763-43.112 49.125-69.625.478-1.098.478-1.098.965-2.218 12.195-28.486 16.536-58.008 16.035-88.782-2.589 2.59-3.145 4.968-4.312 8.438-2.21 6.382-4.748 12.483-7.688 18.562-.277.585-.553 1.17-.839 1.772-7.567 15.949-16.402 30.049-28.161 43.228-2.83 3.353-2.83 3.353-5.66 6.707-4.201 4.054-8.625 8.401-13.34 12.293-.55.461-1.1.922-1.666 1.397-12.976 10.864-26.633 20.556-40.74 29.885-5.248 3.471-10.43 7.031-15.605 10.608-3.918 2.704-7.862 5.362-11.837 7.981-7.258 4.786-14.288 9.787-21.152 15.129-1.334 1.025-1.334 1.025-2.695 2.07-16.035 12.669-35.547 28.271-42.123 40.242-10.677 19.434-19.557 36.41-25.182 60.876-8.772 38.138-8.609 84.626-32 116.812-.712 1.003-.712 1.003-1.438 2.026-30.186 42.429-78.6525 79.541-130.5657 89.564-5.6171.769-9.2392.629-14.0586-2.715-1.9375-2.875-1.9375-2.875-2.125-6.25 2.919-8.91 11.0988-14.003 18.1875-19.625 1.836-1.497 3.6694-2.997 5.5-4.5 2.7296-2.238 5.4625-4.47 8.2149-6.68 7.0255-5.664 13.7437-11.607 20.2851-17.82.8984-.847.8984-.847 1.815-1.712 36.3738-34.525 43.3248-77.133 46.6848-125.413 1.125-16.072 2.372-32.093 4.481-48.07.157-1.201.315-2.402.477-3.639 5.832-42.209 24.372-73.343 52.792-104.103.554-.603 1.108-1.206 1.679-1.826 3.485-3.728 7.149-7.119 11.018-10.444 3.517-3.071 6.864-6.32 10.241-9.543 6.556-6.212 13.26-12.156 20.213-17.917 2.849-2.374 5.661-4.792 8.474-7.208.576-.494 1.152-.989 1.746-1.498 14.205-12.197 14.205-12.197 28.184-24.65 2.061-1.856 4.153-3.67 6.258-5.477 3.756-3.265 7.228-6.772 10.718-10.316 2.008-1.976 4.067-3.807 6.219-5.621 4.786-4.127 8.862-8.799 13-13.563.962-1.087 1.924-2.175 2.887-3.262 11.933-13.575 21.296-27.971 30.113-43.738-4.131 3.194-7.899 6.668-11.687 10.25-38.118 35.602-87.38 51.242-137.063 63.458-13.865 3.409-27.616 7.039-41.25 11.292-1.206.37-1.206.37-2.437.748-21.566 6.655-40.353 15.275-56.5628 31.252-.6703.658-1.3406 1.315-2.0312 1.992-32.4792 34.399-37.0265 100.748-36.1182 145.232.4991 12.614 2.2489 25.167 4.2276 37.624.6849 4.398 1.2399 8.692 1.2968 13.152.0284 1.031.0567 2.063.086 3.125-.5799 3.617-1.95 5.261-4.461 7.875-2.9746 1.487-4.6728 1.431-8 1-2.953-1.677-5.4471-3.771-8-6-.5775-.483-1.155-.967-1.75-1.465-13.5104-12.291-20.71285-31.46-25.12497-48.722-.1911-.746-.38221-1.492-.5791-2.261-3.577801-15.178-3.9175714-30.355-3.85839931-45.864.00323273-1.526.00323273-1.526.00653081-3.083.0545303-16.071.7524695-31.713 3.3059685-47.605.22228-1.413.44444-2.825.6665-4.238 7.84517-49.518 19.25257-102.691 55.33347-139.762.6188-.704 1.2375-1.408 1.875-2.133 4.1882-4.618 9.0102-8.018 14.1875-11.429.6537-.436 1.3075-.871 1.981-1.319 11.6119-7.407 24.3623-12.26 37.3943-16.494.698-.23 1.396-.46 2.115-.697 14.582-4.806 29.329-8.968 44.134-13.02 14.668-4.019 29.005-8.758 43.313-13.908.877-.313 1.754-.626 2.657-.949 42.736-15.354 42.736-15.354 79.035-41.809 2.308-2.242 2.308-2.242 4.308-2.242.262-.576.524-1.152.793-1.746 1.282-2.394 2.771-4.242 4.52-6.316 10.201-12.88 12.413-28.58 13.218-44.5.043-.816.085-1.631.128-2.471.542-11.224.667-22.462.818-33.698.649-46.383 8.588-91.636 37.523-129.269.683-.907 1.367-1.815 2.071-2.75 38.377-49.0292 98.752-68.4988 158.365-75.9948 15.619-1.8611 31.104-2.4646 46.814-2.4426z" fill="#0085ff"/><path d="m426.312 160.625c0-18.406 14.907-33.313 33.282-33.313s33.281 14.907 33.281 33.313c0 18.375-14.906 33.281-33.281 33.281s-33.282-14.906-33.282-33.281z" fill="#fff"/><path d="m903.812 201.031v153.031h-60.593v-148.531c0-31.312-13.188-47.187-39.531-47.187-29.126 0-43.719 18.844-43.719 56.125v81.281h-60.25v-81.281c0-37.281-14.594-56.125-43.719-56.125-26.312 0-39.5 15.875-39.5 47.187v148.531h-60.594v-153.031c0-31.25 7.969-56.093 23.938-74.5 16.5-18.375 38.094-27.8122 64.906-27.8122 31 0 54.5 11.9372 70 35.7812l15.094 25.312 15.094-25.312c15.531-23.844 39.031-35.7812 70.031-35.7812 26.812 0 48.406 9.4372 64.875 27.8122 16 18.407 23.968 43.25 23.968 74.5z" fill="#fff"/></svg>