<svg width="3158" height="897" viewBox="0 0 3158 897" fill="none" xmlns="http://www.w3.org/2000/svg">
<path d="M1160.48 318.98C1135.33 343.807 1104.62 356.22 1068.36 356.22C1032.1 356.22 1001.39 343.807 976.24 318.98C951.413 293.827 939 263.12 939 226.86C939 190.6 951.413 160.057 976.24 135.23C1001.39 110.077 1032.1 97.5 1068.36 97.5C1104.62 97.5 1135.33 110.077 1160.48 135.23C1185.63 160.057 1198.21 190.6 1198.21 226.86C1198.21 263.12 1185.63 293.827 1160.48 318.98ZM1020.83 275.37C1033.57 288.11 1049.41 294.48 1068.36 294.48C1087.31 294.48 1103.15 288.11 1115.89 275.37C1128.63 262.63 1135 246.46 1135 226.86C1135 207.26 1128.63 191.09 1115.89 178.35C1103.15 165.61 1087.31 159.24 1068.36 159.24C1049.41 159.24 1033.57 165.61 1020.83 178.35C1008.42 191.09 1002.21 207.26 1002.21 226.86C1002.21 246.46 1008.42 262.63 1020.83 275.37Z" fill="white"/>
<path d="M1373 98.14C1399.78 98.14 1421.83 107.123 1439.15 125.09C1456.79 143.057 1465.61 167.883 1465.61 199.57V350H1402.4V207.41C1402.4 191.077 1397.99 178.663 1389.17 170.17C1380.35 161.35 1368.59 156.94 1353.89 156.94C1337.55 156.94 1324.49 162.003 1314.69 172.13C1304.89 182.257 1299.99 197.447 1299.99 217.7V350H1236.78V105H1299.99V132.44C1315.34 109.573 1339.68 98.14 1373 98.14Z" fill="white"/>
<path d="M1572.99 174.58C1572.99 181.113 1577.24 186.503 1585.73 190.75C1594.55 194.67 1605.17 198.263 1617.58 201.53C1629.99 204.47 1642.41 208.39 1654.82 213.29C1667.23 217.863 1677.69 225.703 1686.18 236.81C1695 247.917 1699.41 261.8 1699.41 278.46C1699.41 303.613 1689.94 323.05 1670.99 336.77C1652.37 350.163 1629.01 356.86 1600.92 356.86C1550.61 356.86 1516.31 337.423 1498.02 298.55L1552.9 267.68C1560.09 288.913 1576.09 299.53 1600.92 299.53C1623.46 299.53 1634.73 292.507 1634.73 278.46C1634.73 271.927 1630.32 266.7 1621.5 262.78C1613.01 258.533 1602.55 254.777 1590.14 251.51C1577.73 248.243 1565.31 244.16 1552.9 239.26C1540.49 234.36 1529.87 226.683 1521.05 216.23C1512.56 205.45 1508.31 192.057 1508.31 176.05C1508.31 151.877 1517.13 132.93 1534.77 119.21C1552.74 105.163 1574.95 98.14 1601.41 98.14C1621.34 98.14 1639.47 102.713 1655.8 111.86C1672.13 120.68 1685.04 133.42 1694.51 150.08L1640.61 179.48C1632.77 162.82 1619.7 154.49 1601.41 154.49C1593.24 154.49 1586.38 156.287 1580.83 159.88C1575.6 163.473 1572.99 168.373 1572.99 174.58Z" fill="white"/>
<path d="M1868.12 165.76H1812.75V267.68C1812.75 276.173 1814.88 282.38 1819.12 286.3C1823.37 290.22 1829.58 292.507 1837.74 293.16C1845.91 293.487 1856.04 293.323 1868.12 292.67V350C1824.68 354.9 1793.97 350.817 1776 337.75C1758.36 324.683 1749.54 301.327 1749.54 267.68V165.76H1706.91V105H1749.54V55.51L1801.75 51.4L1812.75 105H1868.12V165.76Z" fill="white"/>
<path d="M1953.54 253.47C1962.04 284.177 1985.07 299.53 2022.63 299.53C2046.81 299.53 2065.1 291.363 2077.51 275.03L2128.47 304.43C2104.3 339.383 2068.69 356.86 2021.65 356.86C1981.15 356.86 1948.64 344.61 1924.14 320.11C1899.64 295.61 1887.39 264.74 1887.39 227.5C1887.39 190.587 1899.48 159.88 1923.65 135.38C1947.83 110.553 1978.86 98.14 2016.75 98.14C2052.69 98.14 2082.25 110.553 2105.44 135.38C2128.96 160.207 2140.72 190.913 2140.72 227.5C2140.72 235.667 2139.91 244.323 2138.27 253.47H1953.54ZM1952.56 204.47H2077.51C2073.92 187.81 2066.41 175.397 2054.97 167.23C2043.87 159.063 2031.13 154.98 2016.75 154.98C1999.77 154.98 1985.72 159.39 1974.61 168.21C1963.51 176.703 1956.16 188.79 1952.56 204.47Z" fill="white"/>
<path d="M2243.16 147.14C2249.04 131.46 2258.68 119.7 2272.07 111.86C2285.79 104.02 2300.98 100.1 2317.64 100.1V170.66C2298.37 168.373 2281.05 172.293 2265.7 182.42C2250.67 192.547 2243.16 209.37 2243.16 232.89V350H2179.95V105H2243.16V147.14Z" fill="white"/>
<path d="M2515.33 22H2578.54L2589.54 350H2526.33V321.09C2507.71 344.937 2481.25 356.86 2446.95 356.86C2413.95 356.86 2385.7 344.447 2362.18 319.62C2338.98 294.467 2327.39 263.76 2327.39 227.5C2327.39 191.24 2338.98 160.697 2362.18 135.87C2385.7 110.717 2413.95 98.14 2446.95 98.14C2481.25 98.14 2507.71 110.063 2526.33 133.91L2515.33 22ZM2409.71 277.48C2422.77 290.22 2439.11 296.59 2458.71 296.59C2478.31 296.59 2494.48 290.22 2507.22 277.48C2519.96 264.413 2526.33 247.753 2526.33 227.5C2526.33 207.247 2519.96 190.75 2507.22 178.01C2494.48 164.943 2478.31 158.41 2458.71 158.41C2439.11 158.41 2422.77 164.943 2409.71 178.01C2396.97 190.75 2390.6 207.247 2390.6 227.5C2390.6 247.753 2396.97 264.413 2409.71 277.48Z" fill="white"/>
<path d="M2851.19 319.62C2826.03 344.447 2795.33 356.86 2759.07 356.86C2722.81 356.86 2692.1 344.447 2666.95 319.62C2642.12 294.467 2629.71 263.76 2629.71 227.5C2629.71 191.24 2642.12 160.697 2666.95 135.87C2692.1 110.717 2722.81 98.14 2759.07 98.14C2795.33 98.14 2826.03 110.717 2851.19 135.87C2876.34 160.697 2888.92 191.24 2888.92 227.5C2888.92 263.76 2876.34 294.467 2851.19 319.62ZM2711.54 276.01C2724.28 288.75 2740.12 295.12 2759.07 295.12C2778.01 295.12 2793.86 288.75 2806.6 276.01C2819.34 263.27 2825.71 247.1 2825.71 227.5C2825.71 207.9 2819.34 191.73 2806.6 178.99C2793.86 166.25 2778.01 159.88 2759.07 159.88C2740.12 159.88 2724.28 166.25 2711.54 178.99C2699.12 191.73 2692.92 207.9 2692.92 227.5C2692.92 247.1 2699.12 263.27 2711.54 276.01Z" fill="white"/>
<path d="M3064.7 98.14C3091.49 98.14 3113.54 107.123 3130.85 125.09C3148.49 143.057 3157.31 167.883 3157.31 199.57V350H3094.1V207.41C3094.1 191.077 3089.69 178.663 3080.87 170.17C3072.05 161.35 3060.29 156.94 3045.59 156.94C3029.26 156.94 3016.19 162.003 3006.39 172.13C2996.59 182.257 2991.69 197.447 2991.69 217.7V350H2928.48V105H2991.69V132.44C3007.05 109.573 3031.38 98.14 3064.7 98.14Z" fill="white"/>
<path d="M2306.23 535.8C2309.83 526.2 2315.73 519 2323.93 514.2C2332.33 509.4 2341.63 507 2351.83 507V550.2C2340.03 548.8 2329.43 551.2 2320.03 557.4C2310.83 563.6 2306.23 573.9 2306.23 588.3V660H2267.53V510H2306.23V535.8Z" fill="white"/>
<path d="M2401.6 600.9C2406.8 619.7 2420.9 629.1 2443.9 629.1C2458.7 629.1 2469.9 624.1 2477.5 614.1L2508.7 632.1C2493.9 653.5 2472.1 664.2 2443.3 664.2C2418.5 664.2 2398.6 656.7 2383.6 641.7C2368.6 626.7 2361.1 607.8 2361.1 585C2361.1 562.4 2368.5 543.6 2383.3 528.6C2398.1 513.4 2417.1 505.8 2440.3 505.8C2462.3 505.8 2480.4 513.4 2494.6 528.6C2509 543.8 2516.2 562.6 2516.2 585C2516.2 590 2515.7 595.3 2514.7 600.9H2401.6ZM2401 570.9H2477.5C2475.3 560.7 2470.7 553.1 2463.7 548.1C2456.9 543.1 2449.1 540.6 2440.3 540.6C2429.9 540.6 2421.3 543.3 2414.5 548.7C2407.7 553.9 2403.2 561.3 2401 570.9Z" fill="white"/>
<path d="M2630.51 505.8C2650.71 505.8 2667.91 513.5 2682.11 528.9C2696.51 544.1 2703.71 562.8 2703.71 585C2703.71 607.2 2696.51 626 2682.11 641.4C2667.91 656.6 2650.71 664.2 2630.51 664.2C2609.51 664.2 2593.31 656.9 2581.91 642.3V720H2543.21V510H2581.91V527.7C2593.31 513.1 2609.51 505.8 2630.51 505.8ZM2593.61 615.6C2601.41 623.4 2611.31 627.3 2623.31 627.3C2635.31 627.3 2645.21 623.4 2653.01 615.6C2661.01 607.6 2665.01 597.4 2665.01 585C2665.01 572.6 2661.01 562.5 2653.01 554.7C2645.21 546.7 2635.31 542.7 2623.31 542.7C2611.31 542.7 2601.41 546.7 2593.61 554.7C2585.81 562.5 2581.91 572.6 2581.91 585C2581.91 597.4 2585.81 607.6 2593.61 615.6Z" fill="white"/>
<path d="M2731.01 660V441H2769.71V660H2731.01Z" fill="white"/>
<path d="M2919.13 510H2957.83V660H2919.13V642.3C2907.53 656.9 2891.23 664.2 2870.23 664.2C2850.23 664.2 2833.03 656.6 2818.63 641.4C2804.43 626 2797.33 607.2 2797.33 585C2797.33 562.8 2804.43 544.1 2818.63 528.9C2833.03 513.5 2850.23 505.8 2870.23 505.8C2891.23 505.8 2907.53 513.1 2919.13 527.7V510ZM2847.73 615.6C2855.53 623.4 2865.43 627.3 2877.43 627.3C2889.43 627.3 2899.33 623.4 2907.13 615.6C2915.13 607.6 2919.13 597.4 2919.13 585C2919.13 572.6 2915.13 562.5 2907.13 554.7C2899.33 546.7 2889.43 542.7 2877.43 542.7C2865.43 542.7 2855.53 546.7 2847.73 554.7C2839.93 562.5 2836.03 572.6 2836.03 585C2836.03 597.4 2839.93 607.6 2847.73 615.6Z" fill="white"/>
<path d="M3090.72 510H3132.12L3077.52 660C3069.72 681.6 3059.32 697.2 3046.32 706.8C3033.52 716.6 3017.52 721 2998.32 720V684C3008.72 684.2 3016.92 682 3022.92 677.4C3029.12 672.8 3034.02 665.4 3037.62 655.2L2976.12 510H3018.42L3057.42 610.8L3090.72 510Z" fill="white"/>
<path d="M843.187 349.219C835.187 390.312 771.656 435.25 698.687 443.969C660.656 448.531 622.875 456.178 583.25 450.875C535.999 444.551 478.499 474.521 311.719 191.25C311.719 64.8749 394.469 27.8437 394.469 27.8437C436.219 8.6562 507.813 0.59375 582.281 0H584.094C658.563 0.59375 730.218 8.6562 771.937 27.8437C771.937 27.8437 854.717 64.8749 854.717 191.25C854.717 191.25 855.749 284.469 843.187 349.219Z" fill="url(#paint0_linear_53_110)"/>
<path d="M543.715 447.366C527.715 445.366 520 452.125 513.319 460.813C510.935 463.148 509.705 465.807 508.319 468.813C507.414 470.491 507.414 470.491 506.49 472.203C503.471 478.235 501.508 484.677 499.381 491.063C495.189 503.594 490.684 515.708 484.443 527.375C484.007 528.195 483.571 529.015 483.121 529.86C479.799 536.042 476.295 542.026 472.318 547.813C471.778 548.606 471.778 548.606 471.227 549.415C457.692 569.182 441.665 586.612 422.318 600.813C421.698 601.277 421.078 601.741 420.439 602.22C404.796 613.905 387.734 623.262 370.712 632.758C364.464 636.258 358.379 639.997 352.318 643.813C351.292 644.456 350.266 645.099 349.209 645.762C344.058 648.973 344.058 648.973 339.135 652.512C337.318 653.813 337.318 653.813 335.318 653.813C335.318 654.473 335.318 655.133 335.318 655.813C333.949 656.996 332.519 658.109 331.068 659.192C324.625 664.218 319.022 669.922 313.318 675.75C311.768 677.329 310.215 678.906 308.66 680.48C307.27 681.888 305.883 683.301 304.498 684.715C301.835 687.278 301.015 687.769 297.318 688C294.318 687.813 294.318 687.813 292.318 685.813C291.854 680.065 292.627 675.811 295.068 670.563C295.373 669.889 295.679 669.215 295.993 668.52C304.546 650.271 315.983 633.042 329.853 618.43C331.825 616.337 333.684 614.221 335.506 612C338.129 608.89 341.086 606.326 344.182 603.695C346.496 601.656 348.654 599.51 350.818 597.313C353.526 594.568 356.26 591.94 359.193 589.438C381.163 570.482 396.957 546.326 408.318 519.813C408.796 518.715 408.796 518.715 409.283 517.595C421.479 489.109 425.819 459.587 425.318 428.813C422.729 431.402 422.173 433.78 421.006 437.25C418.796 443.633 416.258 449.733 413.318 455.813C413.042 456.397 412.765 456.982 412.479 457.585C404.912 473.534 396.077 487.634 384.318 500.813C381.488 504.166 381.488 504.166 378.658 507.52C374.457 511.574 370.033 515.921 365.318 519.813C364.768 520.274 364.219 520.734 363.652 521.209C350.677 532.074 337.019 541.765 322.912 551.095C317.665 554.565 312.482 558.125 307.308 561.703C303.389 564.407 299.445 567.064 295.47 569.684C288.212 574.469 281.182 579.47 274.318 584.813C272.984 585.837 272.984 585.837 271.623 586.883C255.588 599.552 236.076 615.154 229.5 627.125C218.823 646.558 209.943 663.534 204.318 688C195.546 726.139 195.709 772.627 172.318 804.813C171.606 805.816 171.606 805.816 170.88 806.839C140.693 849.268 92.2274 886.38 40.3143 896.403C34.6972 897.171 31.0751 897.032 26.2556 893.688C24.3181 890.813 24.3181 890.813 24.1306 887.438C27.0496 878.527 35.2295 873.434 42.3182 867.813C44.1542 866.316 45.9875 864.816 47.8181 863.313C50.5477 861.075 53.2807 858.843 56.033 856.633C63.0586 850.968 69.7768 845.026 76.3182 838.813C77.2166 837.965 77.2171 837.965 78.1336 837.101C114.508 802.576 121.458 759.968 124.818 711.688C125.943 695.615 127.189 679.594 129.299 663.617C129.456 662.417 129.614 661.216 129.776 659.978C135.609 617.77 154.148 586.635 182.568 555.875C183.122 555.273 183.676 554.67 184.247 554.049C187.732 550.322 191.397 546.93 195.266 543.605C198.783 540.535 202.129 537.285 205.506 534.063C212.062 527.85 218.767 521.906 225.72 516.146C228.568 513.771 231.38 511.354 234.193 508.938C234.769 508.443 235.346 507.949 235.939 507.439C250.144 495.242 250.144 495.242 264.123 482.789C266.184 480.933 268.276 479.12 270.381 477.313C274.137 474.048 277.609 470.541 281.1 466.996C283.107 465.021 285.166 463.19 287.318 461.375C292.104 457.249 296.18 452.577 300.318 447.813C301.28 446.725 302.243 445.638 303.205 444.551C315.138 430.975 324.502 416.58 333.318 400.813C329.187 404.006 325.419 407.48 321.631 411.063C283.513 446.665 234.251 462.305 184.568 474.521C170.704 477.93 156.952 481.56 143.318 485.813C142.112 486.183 142.112 486.183 140.881 486.56C119.315 493.215 100.528 501.836 84.3182 517.813C83.6479 518.47 82.9776 519.128 82.287 519.805C49.8078 554.203 45.2604 620.553 46.1687 665.036C46.6678 677.65 48.4176 690.203 50.3963 702.66C51.0812 707.059 51.6363 711.353 51.6932 715.813C51.7215 716.844 51.7499 717.875 51.7791 718.938C51.1992 722.554 49.8292 724.199 47.3181 726.813C44.3435 728.3 42.6454 728.244 39.3182 727.813C36.3652 726.136 33.871 724.041 31.3181 721.813C30.7406 721.329 30.1631 720.846 29.5681 720.348C16.0577 708.057 8.85535 688.888 4.44323 671.625C4.25212 670.879 4.06102 670.133 3.86412 669.365C0.286325 654.187 -0.0534414 639.01 0.00573073 623.5C0.00896346 621.974 0.00926864 621.974 0.0125667 620.417C0.067097 604.347 0.764731 588.705 3.31823 572.813C3.54051 571.4 3.76316 569.988 3.98522 568.575C11.8304 519.056 23.2372 465.884 59.3182 428.813C59.9369 428.109 60.5557 427.405 61.1932 426.68C65.3813 422.062 70.2034 418.661 75.3807 415.25C76.0344 414.815 76.6886 414.38 77.3622 413.932C88.9741 406.525 101.724 401.672 114.756 397.438C115.454 397.208 116.152 396.978 116.871 396.74C131.453 391.935 146.2 387.773 161.006 383.72C175.673 379.702 190.01 374.963 204.318 369.813C205.195 369.5 206.072 369.187 206.975 368.864C249.711 353.51 249.711 353.51 286.01 327.055C289.552 323.614 292.401 320.582 295.631 316.75C305.832 303.871 308.044 288.171 308.85 272.25C308.892 271.435 308.934 270.62 308.978 269.78C309.519 258.556 309.644 247.317 309.795 236.082C315.702 -202.5 643.999 439 543.715 447.366Z" fill="url(#paint1_linear_53_110)"/>
<path d="M426.281 162.094C426.281 143.687 441.188 128.781 459.562 128.781C477.938 128.781 492.844 143.687 492.844 162.094C492.844 180.469 477.938 195.375 459.562 195.375C441.188 195.375 426.281 180.469 426.281 162.094Z" fill="white"/>
<path d="M903.5 201.312V354.344H842.906V205.812C842.906 174.5 829.719 158.625 803.375 158.625C774.25 158.625 759.656 177.469 759.656 214.75V296.031H699.406V214.75C699.406 177.469 684.812 158.625 655.688 158.625C629.375 158.625 616.188 174.5 616.188 205.812V354.344H555.594V201.312C555.594 170.062 563.562 145.219 579.531 126.812C596.031 108.437 617.625 99 644.438 99C675.438 99 698.938 110.937 714.438 134.781L729.531 160.094L744.625 134.781C760.156 110.937 783.656 99 814.656 99C841.469 99 863.062 108.437 879.531 126.812C895.531 145.219 903.5 170.062 903.5 201.312Z" fill="white"/>
<defs>
<linearGradient id="paint0_linear_53_110" x1="604.5" y1="2.07083e-05" x2="604.5" y2="897" gradientUnits="userSpaceOnUse">
<stop stop-color="#6363FF"/>
<stop offset="1" stop-color="#4730A7"/>
</linearGradient>
<linearGradient id="paint1_linear_53_110" x1="604.5" y1="2.07083e-05" x2="604.5" y2="897" gradientUnits="userSpaceOnUse">
<stop stop-color="#6363FF"/>
<stop offset="1" stop-color="#4730A7"/>
</linearGradient>
</defs>
</svg>
