<svg width="3159" height="897" viewBox="0 0 3159 897" fill="none" xmlns="http://www.w3.org/2000/svg">
<path d="M2306.23 535.8C2309.83 526.2 2315.73 519 2323.93 514.2C2332.33 509.4 2341.63 507 2351.83 507V550.2C2340.03 548.8 2329.43 551.2 2320.03 557.4C2310.83 563.6 2306.23 573.9 2306.23 588.3V660H2267.53V510H2306.23V535.8Z" fill="white"/>
<path d="M2401.6 600.9C2406.8 619.7 2420.9 629.1 2443.9 629.1C2458.7 629.1 2469.9 624.1 2477.5 614.1L2508.7 632.1C2493.9 653.5 2472.1 664.2 2443.3 664.2C2418.5 664.2 2398.6 656.7 2383.6 641.7C2368.6 626.7 2361.1 607.8 2361.1 585C2361.1 562.4 2368.5 543.6 2383.3 528.6C2398.1 513.4 2417.1 505.8 2440.3 505.8C2462.3 505.8 2480.4 513.4 2494.6 528.6C2509 543.8 2516.2 562.6 2516.2 585C2516.2 590 2515.7 595.3 2514.7 600.9H2401.6ZM2401 570.9H2477.5C2475.3 560.7 2470.7 553.1 2463.7 548.1C2456.9 543.1 2449.1 540.6 2440.3 540.6C2429.9 540.6 2421.3 543.3 2414.5 548.7C2407.7 553.9 2403.2 561.3 2401 570.9Z" fill="white"/>
<path d="M2630.51 505.8C2650.71 505.8 2667.91 513.5 2682.11 528.9C2696.51 544.1 2703.71 562.8 2703.71 585C2703.71 607.2 2696.51 626 2682.11 641.4C2667.91 656.6 2650.71 664.2 2630.51 664.2C2609.51 664.2 2593.31 656.9 2581.91 642.3V720H2543.21V510H2581.91V527.7C2593.31 513.1 2609.51 505.8 2630.51 505.8ZM2593.61 615.6C2601.41 623.4 2611.31 627.3 2623.31 627.3C2635.31 627.3 2645.21 623.4 2653.01 615.6C2661.01 607.6 2665.01 597.4 2665.01 585C2665.01 572.6 2661.01 562.5 2653.01 554.7C2645.21 546.7 2635.31 542.7 2623.31 542.7C2611.31 542.7 2601.41 546.7 2593.61 554.7C2585.81 562.5 2581.91 572.6 2581.91 585C2581.91 597.4 2585.81 607.6 2593.61 615.6Z" fill="white"/>
<path d="M2731.01 660V441H2769.71V660H2731.01Z" fill="white"/>
<path d="M2919.13 510H2957.83V660H2919.13V642.3C2907.53 656.9 2891.23 664.2 2870.23 664.2C2850.23 664.2 2833.03 656.6 2818.63 641.4C2804.43 626 2797.33 607.2 2797.33 585C2797.33 562.8 2804.43 544.1 2818.63 528.9C2833.03 513.5 2850.23 505.8 2870.23 505.8C2891.23 505.8 2907.53 513.1 2919.13 527.7V510ZM2847.73 615.6C2855.53 623.4 2865.43 627.3 2877.43 627.3C2889.43 627.3 2899.33 623.4 2907.13 615.6C2915.13 607.6 2919.13 597.4 2919.13 585C2919.13 572.6 2915.13 562.5 2907.13 554.7C2899.33 546.7 2889.43 542.7 2877.43 542.7C2865.43 542.7 2855.53 546.7 2847.73 554.7C2839.93 562.5 2836.03 572.6 2836.03 585C2836.03 597.4 2839.93 607.6 2847.73 615.6Z" fill="white"/>
<path d="M3090.72 510H3132.12L3077.52 660C3069.72 681.6 3059.32 697.2 3046.32 706.8C3033.52 716.6 3017.52 721 2998.32 720V684C3008.72 684.2 3016.92 682 3022.92 677.4C3029.12 672.8 3034.02 665.4 3037.62 655.2L2976.12 510H3018.42L3057.42 610.8L3090.72 510Z" fill="white"/>
<path d="M1160.48 318.62C1135.33 343.447 1104.62 355.86 1068.36 355.86C1032.1 355.86 1001.39 343.447 976.24 318.62C951.413 293.467 939 262.76 939 226.5C939 190.24 951.413 159.697 976.24 134.87C1001.39 109.717 1032.1 97.14 1068.36 97.14C1104.62 97.14 1135.33 109.717 1160.48 134.87C1185.63 159.697 1198.21 190.24 1198.21 226.5C1198.21 262.76 1185.63 293.467 1160.48 318.62ZM1020.83 275.01C1033.57 287.75 1049.41 294.12 1068.36 294.12C1087.31 294.12 1103.15 287.75 1115.89 275.01C1128.63 262.27 1135 246.1 1135 226.5C1135 206.9 1128.63 190.73 1115.89 177.99C1103.15 165.25 1087.31 158.88 1068.36 158.88C1049.41 158.88 1033.57 165.25 1020.83 177.99C1008.42 190.73 1002.21 206.9 1002.21 226.5C1002.21 246.1 1008.42 262.27 1020.83 275.01Z" fill="white"/>
<path d="M1374 97.14C1400.78 97.14 1422.83 106.123 1440.15 124.09C1457.79 142.057 1466.61 166.883 1466.61 198.57V349H1403.4V206.41C1403.4 190.077 1398.99 177.663 1390.17 169.17C1381.35 160.35 1369.59 155.94 1354.89 155.94C1338.55 155.94 1325.49 161.003 1315.69 171.13C1305.89 181.257 1300.99 196.447 1300.99 216.7V349H1237.78V104H1300.99V131.44C1316.34 108.573 1340.68 97.14 1374 97.14Z" fill="white"/>
<path d="M1573.99 173.58C1573.99 180.113 1578.24 185.503 1586.73 189.75C1595.55 193.67 1606.17 197.263 1618.58 200.53C1630.99 203.47 1643.41 207.39 1655.82 212.29C1668.23 216.863 1678.69 224.703 1687.18 235.81C1696 246.917 1700.41 260.8 1700.41 277.46C1700.41 302.613 1690.94 322.05 1671.99 335.77C1653.37 349.163 1630.01 355.86 1601.92 355.86C1551.61 355.86 1517.31 336.423 1499.02 297.55L1553.9 266.68C1561.09 287.913 1577.09 298.53 1601.92 298.53C1624.46 298.53 1635.73 291.507 1635.73 277.46C1635.73 270.927 1631.32 265.7 1622.5 261.78C1614.01 257.533 1603.55 253.777 1591.14 250.51C1578.73 247.243 1566.31 243.16 1553.9 238.26C1541.49 233.36 1530.87 225.683 1522.05 215.23C1513.56 204.45 1509.31 191.057 1509.31 175.05C1509.31 150.877 1518.13 131.93 1535.77 118.21C1553.74 104.163 1575.95 97.14 1602.41 97.14C1622.34 97.14 1640.47 101.713 1656.8 110.86C1673.13 119.68 1686.04 132.42 1695.51 149.08L1641.61 178.48C1633.77 161.82 1620.7 153.49 1602.41 153.49C1594.24 153.49 1587.38 155.287 1581.83 158.88C1576.6 162.473 1573.99 167.373 1573.99 173.58Z" fill="white"/>
<path d="M1869.12 164.76H1813.75V266.68C1813.75 275.173 1815.88 281.38 1820.12 285.3C1824.37 289.22 1830.58 291.507 1838.74 292.16C1846.91 292.487 1857.04 292.323 1869.12 291.67V349C1825.68 353.9 1794.97 349.817 1777 336.75C1759.36 323.683 1750.54 300.327 1750.54 266.68V164.76H1707.91V104H1750.54V54.51L1813.75 35.4V104H1869.12V164.76Z" fill="white"/>
<path d="M1954.54 252.47C1963.04 283.177 1986.07 298.53 2023.63 298.53C2047.81 298.53 2066.1 290.363 2078.51 274.03L2129.47 303.43C2105.3 338.383 2069.69 355.86 2022.65 355.86C1982.15 355.86 1949.64 343.61 1925.14 319.11C1900.64 294.61 1888.39 263.74 1888.39 226.5C1888.39 189.587 1900.48 158.88 1924.65 134.38C1948.83 109.553 1979.86 97.14 2017.75 97.14C2053.69 97.14 2083.25 109.553 2106.44 134.38C2129.96 159.207 2141.72 189.913 2141.72 226.5C2141.72 234.667 2140.91 243.323 2139.27 252.47H1954.54ZM1953.56 203.47H2078.51C2074.92 186.81 2067.41 174.397 2055.97 166.23C2044.87 158.063 2032.13 153.98 2017.75 153.98C2000.77 153.98 1986.72 158.39 1975.61 167.21C1964.51 175.703 1957.16 187.79 1953.56 203.47Z" fill="white"/>
<path d="M2244.16 146.14C2250.04 130.46 2259.68 118.7 2273.07 110.86C2286.79 103.02 2301.98 99.1 2318.64 99.1V169.66C2299.37 167.373 2282.05 171.293 2266.7 181.42C2251.67 191.547 2244.16 208.37 2244.16 231.89V349H2180.95V104H2244.16V146.14Z" fill="white"/>
<path d="M2527.33 6H2590.54V349H2527.33V320.09C2508.71 343.937 2482.25 355.86 2447.95 355.86C2414.95 355.86 2386.7 343.447 2363.18 318.62C2339.98 293.467 2328.39 262.76 2328.39 226.5C2328.39 190.24 2339.98 159.697 2363.18 134.87C2386.7 109.717 2414.95 97.14 2447.95 97.14C2482.25 97.14 2508.71 109.063 2527.33 132.91V6ZM2410.71 276.48C2423.77 289.22 2440.11 295.59 2459.71 295.59C2479.31 295.59 2495.48 289.22 2508.22 276.48C2520.96 263.413 2527.33 246.753 2527.33 226.5C2527.33 206.247 2520.96 189.75 2508.22 177.01C2495.48 163.943 2479.31 157.41 2459.71 157.41C2440.11 157.41 2423.77 163.943 2410.71 177.01C2397.97 189.75 2391.6 206.247 2391.6 226.5C2391.6 246.753 2397.97 263.413 2410.71 276.48Z" fill="white"/>
<path d="M2852.19 318.62C2827.03 343.447 2796.33 355.86 2760.07 355.86C2723.81 355.86 2693.1 343.447 2667.95 318.62C2643.12 293.467 2630.71 262.76 2630.71 226.5C2630.71 190.24 2643.12 159.697 2667.95 134.87C2693.1 109.717 2723.81 97.14 2760.07 97.14C2796.33 97.14 2827.03 109.717 2852.19 134.87C2877.34 159.697 2889.92 190.24 2889.92 226.5C2889.92 262.76 2877.34 293.467 2852.19 318.62ZM2712.54 275.01C2725.28 287.75 2741.12 294.12 2760.07 294.12C2779.01 294.12 2794.86 287.75 2807.6 275.01C2820.34 262.27 2826.71 246.1 2826.71 226.5C2826.71 206.9 2820.34 190.73 2807.6 177.99C2794.86 165.25 2779.01 158.88 2760.07 158.88C2741.12 158.88 2725.28 165.25 2712.54 177.99C2700.12 190.73 2693.92 206.9 2693.92 226.5C2693.92 246.1 2700.12 262.27 2712.54 275.01Z" fill="white"/>
<path d="M3065.7 97.14C3092.49 97.14 3114.54 106.123 3131.85 124.09C3149.49 142.057 3158.31 166.883 3158.31 198.57V349H3095.1V206.41C3095.1 190.077 3090.69 177.663 3081.87 169.17C3073.05 160.35 3061.29 155.94 3046.59 155.94C3030.26 155.94 3017.19 161.003 3007.39 171.13C2997.59 181.257 2992.69 196.447 2992.69 216.7V349H2929.48V104H2992.69V131.44C3008.05 108.573 3032.38 97.14 3065.7 97.14Z" fill="white"/>
<path d="M843.187 349.219C835.187 390.312 771.656 435.25 698.687 443.969C660.656 448.531 622.875 456.178 583.25 450.875C535.999 444.551 478.499 474.521 311.719 191.25C311.719 64.8749 394.469 27.8437 394.469 27.8437C436.219 8.6562 507.813 0.59375 582.281 0H584.094C658.563 0.59375 730.218 8.6562 771.937 27.8437C771.937 27.8437 854.717 64.8749 854.717 191.25C854.717 191.25 855.749 284.469 843.187 349.219Z" fill="url(#paint0_linear_53_110)"/>
<path d="M543.715 447.366C527.715 445.366 520 452.125 513.319 460.813C510.935 463.148 509.705 465.807 508.319 468.813C507.414 470.491 507.414 470.491 506.49 472.203C503.471 478.235 501.508 484.677 499.381 491.063C495.189 503.594 490.684 515.708 484.443 527.375C484.007 528.195 483.571 529.015 483.121 529.86C479.799 536.042 476.295 542.026 472.318 547.813C471.778 548.606 471.778 548.606 471.227 549.415C457.692 569.182 441.665 586.612 422.318 600.813C421.698 601.277 421.078 601.741 420.439 602.22C404.796 613.905 387.734 623.262 370.712 632.758C364.464 636.258 358.379 639.997 352.318 643.813C351.292 644.456 350.266 645.099 349.209 645.762C344.058 648.973 344.058 648.973 339.135 652.512C337.318 653.813 337.318 653.813 335.318 653.813C335.318 654.473 335.318 655.133 335.318 655.813C333.949 656.996 332.519 658.109 331.068 659.192C324.625 664.218 319.022 669.922 313.318 675.75C311.768 677.329 310.215 678.906 308.66 680.48C307.27 681.888 305.883 683.301 304.498 684.715C301.835 687.278 301.015 687.769 297.318 688C294.318 687.813 294.318 687.813 292.318 685.813C291.854 680.065 292.627 675.811 295.068 670.563C295.373 669.889 295.679 669.215 295.993 668.52C304.546 650.271 315.983 633.042 329.853 618.43C331.825 616.337 333.684 614.221 335.506 612C338.129 608.89 341.086 606.326 344.182 603.695C346.496 601.656 348.654 599.51 350.818 597.313C353.526 594.568 356.26 591.94 359.193 589.438C381.163 570.482 396.957 546.326 408.318 519.813C408.796 518.715 408.796 518.715 409.283 517.595C421.479 489.109 425.819 459.587 425.318 428.813C422.729 431.402 422.173 433.78 421.006 437.25C418.796 443.633 416.258 449.733 413.318 455.813C413.042 456.397 412.765 456.982 412.479 457.585C404.912 473.534 396.077 487.634 384.318 500.813C381.488 504.166 381.488 504.166 378.658 507.52C374.457 511.574 370.033 515.921 365.318 519.813C364.768 520.273 364.219 520.734 363.652 521.209C350.677 532.074 337.019 541.765 322.912 551.095C317.665 554.565 312.482 558.125 307.308 561.703C303.389 564.407 299.445 567.064 295.47 569.684C288.212 574.469 281.182 579.47 274.318 584.813C272.984 585.837 272.984 585.837 271.623 586.883C255.588 599.552 236.076 615.154 229.5 627.125C218.823 646.558 209.943 663.534 204.318 688C195.546 726.139 195.709 772.627 172.318 804.813C171.606 805.816 171.606 805.816 170.88 806.839C140.693 849.268 92.2274 886.38 40.3143 896.403C34.6972 897.172 31.0751 897.032 26.2556 893.688C24.3181 890.813 24.3181 890.813 24.1306 887.438C27.0496 878.527 35.2295 873.434 42.3182 867.813C44.1542 866.316 45.9875 864.816 47.8181 863.313C50.5477 861.075 53.2807 858.843 56.033 856.633C63.0586 850.968 69.7767 845.026 76.3182 838.813C77.2166 837.965 77.2171 837.965 78.1336 837.101C114.508 802.576 121.458 759.968 124.818 711.688C125.943 695.615 127.189 679.594 129.299 663.617C129.456 662.417 129.614 661.216 129.776 659.978C135.609 617.77 154.148 586.635 182.568 555.875C183.122 555.273 183.676 554.67 184.247 554.049C187.732 550.322 191.397 546.93 195.266 543.605C198.783 540.535 202.129 537.285 205.506 534.063C212.062 527.85 218.767 521.906 225.72 516.146C228.568 513.771 231.38 511.354 234.193 508.938C234.769 508.443 235.346 507.949 235.939 507.439C250.144 495.242 250.144 495.242 264.123 482.789C266.184 480.933 268.276 479.12 270.381 477.313C274.137 474.048 277.609 470.541 281.1 466.996C283.107 465.021 285.166 463.19 287.318 461.375C292.104 457.249 296.18 452.577 300.318 447.813C301.28 446.725 302.243 445.638 303.205 444.551C315.138 430.975 324.502 416.58 333.318 400.813C329.187 404.006 325.419 407.48 321.631 411.063C283.513 446.665 234.251 462.305 184.568 474.521C170.704 477.93 156.952 481.56 143.318 485.813C142.112 486.183 142.112 486.183 140.881 486.56C119.315 493.215 100.528 501.836 84.3182 517.813C83.6479 518.47 82.9776 519.128 82.287 519.805C49.8078 554.203 45.2604 620.553 46.1687 665.036C46.6678 677.65 48.4176 690.203 50.3963 702.66C51.0812 707.059 51.6363 711.353 51.6932 715.813C51.7215 716.844 51.7499 717.875 51.7791 718.938C51.1992 722.555 49.8292 724.199 47.3181 726.813C44.3435 728.3 42.6454 728.244 39.3182 727.813C36.3652 726.135 33.871 724.041 31.3181 721.813C30.7406 721.329 30.1631 720.846 29.5681 720.348C16.0577 708.057 8.85535 688.888 4.44323 671.625C4.25212 670.879 4.06102 670.133 3.86412 669.365C0.286325 654.187 -0.0534414 639.01 0.00573073 623.5C0.00896346 621.974 0.00926864 621.974 0.0125667 620.417C0.067097 604.347 0.764731 588.705 3.31823 572.813C3.54051 571.4 3.76316 569.987 3.98522 568.575C11.8304 519.057 23.2372 465.884 59.3182 428.813C59.9369 428.109 60.5557 427.405 61.1932 426.68C65.3813 422.062 70.2034 418.661 75.3807 415.25C76.0344 414.815 76.6886 414.38 77.3622 413.932C88.9741 406.525 101.724 401.672 114.756 397.438C115.454 397.208 116.152 396.978 116.871 396.74C131.453 391.935 146.2 387.773 161.006 383.72C175.673 379.702 190.01 374.963 204.318 369.813C205.195 369.5 206.072 369.187 206.975 368.864C249.711 353.51 249.711 353.51 286.01 327.055C289.552 323.614 292.401 320.582 295.631 316.75C305.832 303.871 308.044 288.171 308.85 272.25C308.892 271.435 308.934 270.62 308.978 269.78C309.519 258.556 309.644 247.317 309.795 236.082C315.702 -202.5 643.999 439 543.715 447.366Z" fill="url(#paint1_linear_53_110)"/>
<path d="M426.281 162.094C426.281 143.687 441.188 128.781 459.562 128.781C477.938 128.781 492.844 143.687 492.844 162.094C492.844 180.469 477.938 195.375 459.562 195.375C441.188 195.375 426.281 180.469 426.281 162.094Z" fill="white"/>
<path d="M903.5 201.312V354.344H842.906V205.812C842.906 174.5 829.719 158.625 803.375 158.625C774.25 158.625 759.656 177.469 759.656 214.75V296.031H699.406V214.75C699.406 177.469 684.812 158.625 655.688 158.625C629.375 158.625 616.188 174.5 616.188 205.812V354.344H555.594V201.312C555.594 170.062 563.562 145.219 579.531 126.812C596.031 108.437 617.625 99 644.438 99C675.438 99 698.938 110.937 714.438 134.781L729.531 160.094L744.625 134.781C760.156 110.937 783.656 99 814.656 99C841.469 99 863.062 108.437 879.531 126.812C895.531 145.219 903.5 170.062 903.5 201.312Z" fill="white"/>
<defs>
<linearGradient id="paint0_linear_53_110" x1="604.5" y1="2.07083e-05" x2="604.5" y2="897" gradientUnits="userSpaceOnUse">
<stop stop-color="#6363FF"/>
<stop offset="1" stop-color="#4730A7"/>
</linearGradient>
<linearGradient id="paint1_linear_53_110" x1="604.5" y1="2.07083e-05" x2="604.5" y2="897" gradientUnits="userSpaceOnUse">
<stop stop-color="#6363FF"/>
<stop offset="1" stop-color="#4730A7"/>
</linearGradient>
</defs>
</svg>
